<?xml version="1.0" encoding="UTF-8"?><svg id="Calque_2" xmlns="http://www.w3.org/2000/svg" viewBox="0 0 1829.87 1489.55"><defs><style>.cls-1{fill:#963;}.cls-2{fill-rule:evenodd;}</style></defs><g id="Calque_1-2"><g><path class="cls-1" d="M632.33,734.35v-123.41c-30.45-4.41-59.76-18.28-83.07-41.59h0s-95.3-95.3-95.3-95.3c-5.1-5.1-5.1-13.38,0-18.48l95.3-95.3h0c23.31-23.31,52.63-37.18,83.07-41.59v-123.4c0-7.22,5.85-13.07,13.07-13.07h123.41c4.42-30.45,18.28-59.77,41.59-83.09h0L905.7,3.82c5.1-5.09,13.38-5.09,18.48,0l95.3,95.3h0c23.31,23.31,37.18,52.64,41.59,83.09h123.41c7.22,0,13.07,5.85,13.07,13.07v123.4c30.45,4.42,59.76,18.28,83.08,41.59h0s95.3,95.3,95.3,95.3c5.1,5.1,5.1,13.38,0,18.48l-95.3,95.3h0c-23.31,23.31-52.63,37.18-83.08,41.59v123.41c0,7.21-5.85,13.07-13.07,13.07h-123.42c-4.42,30.45-18.28,59.76-41.59,83.08l-95.3,95.3c-5.1,5.1-13.38,5.1-18.48,0l-95.3-95.3c-23.31-23.31-37.17-52.63-41.59-83.08h-123.42c-7.22,0-13.07-5.85-13.07-13.07h0Zm26.14-417.15c36.31,1.13,72.29,15.49,99.86,43.06h0s91.47,91.47,91.47,91.47h52.07v-52.07l-91.47-91.47h0c-27.58-27.58-41.93-63.55-43.06-99.86h-108.87v108.86h0Zm136.68-134.24c34.72,3.52,65.98,19.18,89.44,42.65,12.58,12.58,22.92,27.4,30.35,43.8,7.43-16.4,17.77-31.22,30.35-43.8,23.46-23.45,54.73-39.14,89.44-42.65-4.09-23.99-15.33-46.95-33.73-65.36h0l-86.06-86.05-86.06,86.05h0c-18.4,18.41-29.65,41.37-33.73,65.36h0Zm-75.6,281.85c-16.4-7.43-31.22-17.77-43.8-30.35-23.46-23.46-39.12-54.72-42.66-89.44-23.98,4.09-46.95,15.33-65.35,33.73h0s-86.06,86.06-86.06,86.06l86.06,86.06h0c18.4,18.4,41.37,29.65,65.35,33.73,3.53-34.72,19.2-65.98,42.66-89.44,12.58-12.58,27.41-22.92,43.8-30.35h0Zm-60.35-121.42c3.11,28.15,15.93,53.5,35.02,72.59,22.06,22.06,52.49,35.76,85.94,35.76h32.67l-72.99-72.99h0c-22.29-22.29-51.27-34.08-80.65-35.36h0Zm242.67-13.35c0-33.45-13.7-63.88-35.76-85.94-19.09-19.09-44.44-31.91-72.59-35.02,1.29,29.37,13.08,58.35,35.36,80.64h0s72.99,72.99,72.99,72.99v-32.67h0Zm160.67-121.69c-1.14,36.3-15.49,72.28-43.06,99.85h0s-91.47,91.47-91.47,91.47v52.07h52.07l91.47-91.47h0c27.58-27.58,63.55-41.93,99.86-43.07v-108.86h-108.87Zm-134.54,154.37l72.99-72.99h0c22.28-22.29,34.07-51.27,35.36-80.64-28.15,3.11-53.5,15.93-72.59,35.02-22.06,22.06-35.76,52.49-35.76,85.94v32.67h0Zm268.79-17.69c-3.53,34.72-19.2,65.98-42.66,89.44-12.58,12.58-27.4,22.92-43.8,30.35,16.4,7.43,31.22,17.77,43.8,30.35,23.46,23.46,39.13,54.72,42.66,89.44,23.98-4.09,46.95-15.33,65.35-33.73h0s86.06-86.06,86.06-86.06l-86.06-86.06h0c-18.4-18.4-41.37-29.65-65.35-33.73h0Zm-25.38,267.39c-36.31-1.14-72.29-15.49-99.86-43.06h0s-91.47-91.47-91.47-91.47h-52.07v52.07l91.47,91.47c27.57,27.57,41.93,63.55,43.07,99.87h108.87v-108.87h0Zm-.74-269.02c-29.37,1.29-58.36,13.08-80.65,35.36h0s-72.99,72.99-72.99,72.99h32.67c33.45,0,63.88-13.7,85.94-35.76,19.09-19.09,31.91-44.44,35.02-72.59h0Zm-153.64,134.49l72.99,72.99h0c22.29,22.29,51.27,34.08,80.65,35.37-3.11-28.16-15.93-53.51-35.02-72.59-22.06-22.07-52.49-35.76-85.94-35.76h-32.67Zm17.69,268.78c-34.72-3.53-65.99-19.2-89.44-42.66-12.58-12.58-22.92-27.4-30.35-43.8-7.43,16.4-17.77,31.22-30.35,43.8-23.46,23.46-54.72,39.13-89.44,42.66,4.09,23.99,15.33,46.95,33.73,65.35l86.06,86.06,86.06-86.06c18.4-18.4,29.65-41.37,33.73-65.35h0Zm-267.39-25.38c1.13-36.31,15.49-72.29,43.06-99.87l91.47-91.47v-52.07h-52.07l-91.47,91.47h0c-27.58,27.57-63.55,41.93-99.86,43.07v108.87h108.88Zm269.02-.74c-1.29-29.38-13.08-58.36-35.36-80.65l-72.99-72.99v32.67c0,33.45,13.7,63.88,35.76,85.94,19.09,19.09,44.44,31.91,72.59,35.02h0Zm-134.49-153.64l-72.99,72.99c-22.29,22.29-34.07,51.27-35.36,80.65,28.16-3.11,53.5-15.93,72.59-35.02,22.06-22.06,35.76-52.49,35.76-85.94v-32.67h0Zm-242.67,19.32c29.37-1.29,58.36-13.08,80.65-35.36h0s72.99-72.99,72.99-72.99h-32.67c-33.45,0-63.88,13.7-85.94,35.76-19.09,19.09-31.91,44.44-35.02,72.59h0Z"/><path class="cls-2" d="M284.82,1271.04h-65.49c5.32-1.51,9.17-5.22,11.55-11.19,1.65-4.09,2.48-8.95,2.48-14.55l-.27-6.41-16.34-137.7-67.59,169.84c-4.59,0-9.55-3.11-14.87-9.35-4.21-4.95-8.44-11.74-12.66-20.37l-60.9-140.3-19.5,137.83c0,8.02,.92,14.21,2.76,18.62,1.83,4.4,5.82,8.89,11.87,13.57H0c5.32-3.16,9.63-8.39,12.94-15.68,2.74-6.15,4.13-11.65,4.13-16.51l19.81-140.07,.55-12.21c0-5.73-1.27-10-3.85-12.8-2.74-2.56-5.04-4.72-6.87-6.37h53.1l66.56,149.61,55.4-149.61h56.37c-4.03,1.47-7.28,4.13-9.76,7.94-2.48,3.81-3.72,7.56-3.72,11.28,0,.73,.14,1.51,.42,2.34,.27,.87,.59,1.74,.97,2.66l19.53,147.23c1.83,8.2,3.85,14.53,6.06,19.03,3.29,6.75,7.7,11.1,13.2,13.16h0Zm276.54-.55h-66.05c3.86-2.02,6.71-4.31,8.54-6.88,1.83-2.57,2.74-5.14,2.74-7.71,0-2.2-.45-4.58-1.37-7.15-1.42-3.3-2.44-5.82-2.98-7.48l-18.4-48.11h-75.39l-19.41,53.2c-1.43,3.67-2.16,6.37-2.16,8.2,0,3.3,1.29,6.33,3.85,9.09,3.67,2.88,6.43,5.18,8.26,6.83h-60.82c7.34-5.5,13.38-11.56,18.16-18.16,3.67-5.14,6.43-10.46,8.26-15.96l57.8-147.23c1.27-3.16,1.92-5.97,1.92-8.36,0-2.61-.87-5.18-2.62-7.66-1.74-2.52-3.79-4.44-6.19-5.73h48.16l72.93,173.91c2.38,6.43,5.87,11.93,10.46,16.52,6.23,5.32,11,9.53,14.31,12.66h0Zm-87.42-98.84l-29.22-75.41-29.3,75.45,58.52-.04h0Zm358.19-104.25c-4.23,2.74-8.44,5.4-12.66,7.98-3.49,3.85-5.88,11.61-7.17,23.16v178.28c-4.94,0-11.05-1.88-18.3-5.64-7.24-3.75-12.52-8.02-15.86-12.8l-116.64-147.82v128.29c0,8.61,1.19,15.18,3.58,19.67,2.38,4.49,6.88,8.48,13.48,11.97h-58.9c6.79-4.59,11.02-7.88,12.66-9.91,3.48-4.21,5.78-10.68,6.89-19.31v-137.78c0-12.47-2.3-21.6-6.89-27.29-1.64-2.02-5.87-4.96-12.66-8.81h46.23l124.94,157.41v-123.79c0-20.41-6.79-31.6-20.36-33.61h61.64Zm245.44,101.41c0,25.91-10,48.66-29.99,68.34-22.75,22.25-52.47,33.35-89.17,33.35h-72.93c6.06-3.3,10.09-7.38,12.11-12.25,2.01-4.9,3.02-11.37,3.02-19.45v-143c0-8.26-1.55-14.55-4.68-18.76-4.58-4.23-8.06-7.44-10.46-9.63h75.4c35.41,0,64.3,11,86.69,33.07,19.99,19.67,29.99,42.42,29.99,68.34h0Zm-36.32,2.76c0-29.4-9.18-50.46-27.53-63.11-13.4-9.23-31.19-13.81-53.38-13.81-3.85,0-8.22,.14-13.08,.41-4.86,.28-10.04,.5-15.54,.68v150.53c3.11,1.29,6.41,2.25,9.9,2.9,3.49,.64,7.52,.95,12.11,.95,19.81,0,38.53-6.41,56.14-19.3,20.92-15.22,31.38-34.99,31.38-59.25h0Zm312.31,98.93h-66.05c3.86-2.02,6.71-4.31,8.54-6.88,1.83-2.57,2.74-5.14,2.74-7.71,0-2.2-.45-4.58-1.37-7.15-1.42-3.3-2.44-5.82-2.98-7.48l-18.4-48.11h-75.39l-19.4,53.2c-1.43,3.67-2.16,6.37-2.16,8.2,0,3.3,1.29,6.33,3.85,9.09,3.67,2.88,6.43,5.18,8.26,6.83h-60.82c7.34-5.5,13.38-11.56,18.16-18.16,3.67-5.14,6.43-10.46,8.26-15.96l57.79-147.23c1.27-3.16,1.92-5.97,1.92-8.36,0-2.61-.87-5.18-2.62-7.66-1.74-2.52-3.79-4.44-6.19-5.73h48.16l72.93,173.91c2.38,6.43,5.87,11.93,10.46,16.52,6.23,5.32,11.01,9.53,14.31,12.66h0Zm-87.42-98.84l-29.22-75.41-29.3,75.45,58.52-.04h0Zm289.66,57.57l-17.06,41.27h-130.17c5.88-3.85,10.09-8.44,12.67-13.76,1.83-3.89,2.74-8.2,2.74-12.98v-150.44c0-7.94-1.19-13.44-3.57-16.56-3.67-3.12-6.71-6.23-9.09-9.35h61.36c-3.13,2.56-6.24,5.14-9.35,7.7-3.85,4.78-5.79,11.7-5.79,20.69v148c7.53,.92,14.99,1.79,22.43,2.62,7.42,.83,14.25,1.25,20.51,1.25,10.08,0,19.57-1.43,28.47-4.27,8.9-2.84,17.83-7.57,26.83-14.17h0Zm274.07,41.27h-66.05c3.87-2.02,6.71-4.31,8.55-6.88,1.82-2.57,2.74-5.14,2.74-7.71,0-2.2-.45-4.58-1.37-7.15-1.41-3.3-2.43-5.82-2.99-7.48l-18.41-48.11h-75.38l-19.41,53.2c-1.43,3.67-2.17,6.37-2.17,8.2,0,3.3,1.29,6.33,3.86,9.09,3.66,2.88,6.42,5.18,8.26,6.83h-60.82c7.32-5.5,13.37-11.56,18.16-18.16,3.66-5.14,6.42-10.46,8.24-15.96l57.81-147.23c1.27-3.16,1.9-5.97,1.9-8.36,0-2.61-.86-5.18-2.62-7.66-1.74-2.52-3.78-4.44-6.18-5.73h48.16l72.92,173.91c2.37,6.43,5.87,11.93,10.45,16.52,6.24,5.32,11.02,9.53,14.31,12.66h0Zm-87.42-98.84l-29.2-75.41-29.3,75.45,58.51-.04h0Z"/><path class="cls-2" d="M364.08,1487.78h14.67v-45.93h54.22v45.93h14.67v-104.61h-14.67v45.94h-54.22v-45.94h-14.67v104.61h0Zm152.84-53.05c0,30.83,23.56,54.83,53.79,54.83s53.64-24,53.64-54.83-23.41-53.34-53.64-53.34-53.79,23.27-53.79,53.34h0Zm15.11,0c0-22.81,17.35-40,38.68-40s38.52,17.19,38.52,40-17.18,41.34-38.52,41.34-38.68-17.78-38.68-41.34h0Zm182.48,53.05h14.67v-91.86h35.85v-12.75h-86.38v12.75h35.85v91.86h0Zm113.43,0h63.27v-12.74h-48.6v-33.63h37.48v-12.76h-37.48v-32.73h46.07v-12.75h-60.75v104.61h0Zm132.84,0h61.49v-12.74h-46.82v-91.87h-14.67v104.61h0Zm156.38-12s12.45,13.78,34.68,13.78c20.75,0,33.19-13.33,33.19-29.49,0-33.94-50.68-28.15-50.68-49.79,0-8.3,7.85-15.26,18.97-15.26,13.33,0,22.96,9.05,22.96,9.05l6.66-12.15s-10.22-10.53-29.63-10.53-33.78,12.89-33.78,29.19c0,32.16,50.67,27.27,50.67,49.94,0,9.92-8.29,15.4-18.07,15.4-15.55,0-26.67-11.26-26.67-11.26l-8.3,11.12h0Zm136.84,12h14.67v-38.67h23.55c19.12,0,32.9-13.34,32.9-33.2s-13.78-32.75-32.9-32.75h-38.22v104.61h0Zm14.67-51.41v-40.45h21.34c12.45,0,20.15,7.41,20.15,19.99s-7.7,20.46-20.3,20.46h-21.18Zm181.86,51.41h15.26l-37.63-104.61h-15.4l-37.63,104.61h15.11l10.37-30.07h39.41l10.52,30.07h0Zm-29.92-90.23s2.21,9.48,3.99,14.81l11.56,33.2h-31.71l11.7-33.2c1.78-5.33,4.15-14.81,4.15-14.81h.31Z"/></g></g></svg>